<?xml version="1.0" standalone="no"?>
<!DOCTYPE svg PUBLIC "-//W3C//DTD SVG 20010904//EN"
 "http://www.w3.org/TR/2001/REC-SVG-20010904/DTD/svg10.dtd">
<svg version="1.0" xmlns="http://www.w3.org/2000/svg"
 width="64.000000pt" height="64.000000pt" viewBox="0 0 64.000000 64.000000"
 preserveAspectRatio="xMidYMid meet">
<metadata>
Created by potrace 1.16, written by Peter Selinger 2001-2019
</metadata>
<g transform="translate(0.000000,64.000000) scale(0.100000,-0.100000)"
fill="#000000" stroke="none">
<path d="M133 610 c-48 -29 -81 -86 -91 -156 -10 -77 -2 -159 16 -159 11 0 14
23 15 95 2 108 19 148 77 187 30 21 44 23 170 23 126 0 140 -2 170 -23 58 -39
75 -79 77 -187 1 -72 4 -95 15 -95 17 0 25 81 15 160 -9 69 -42 126 -90 155
-28 18 -51 20 -187 20 -136 0 -159 -2 -187 -20z"/>
<path d="M179 535 c-40 -22 -54 -67 -53 -175 1 -69 7 -111 22 -154 32 -88 47
-106 87 -106 41 0 45 6 59 84 15 83 37 83 52 0 14 -78 18 -84 59 -84 40 0 55
18 87 106 26 72 31 230 9 282 -21 51 -61 67 -131 52 -42 -9 -67 -9 -96 -1 -50
14 -63 13 -95 -4z m101 -25 c25 -7 49 -7 83 1 26 6 59 8 73 5 68 -17 72 -189
8 -334 -13 -30 -29 -52 -38 -52 -15 0 -19 9 -30 79 -18 106 -94 106 -112 0
-11 -70 -15 -79 -30 -79 -32 0 -84 161 -84 260 0 111 39 147 130 120z"/>
</g>
</svg>
